<?xml version="1.0" encoding="UTF-8"?>
<svg xmlns="http://www.w3.org/2000/svg" xmlns:xlink="http://www.w3.org/1999/xlink" viewBox="0 0 150 150" width="150px" height="150px">
<g id="surface38887297">
<rect x="0" y="0" width="150" height="150" style="fill:rgb(100%,100%,100%);fill-opacity:1;stroke:none;"/>
<path style=" stroke:none;fill-rule:nonzero;fill:rgb(13.725491%,12.156863%,12.54902%);fill-opacity:1;" d="M 55.5 6 C 41.453125 6 30 17.453125 30 31.5 C 30 41.402344 35.851562 49.777344 44.125 54 C 35.851562 58.222656 30 66.597656 30 76.5 C 30 86.402344 35.851562 94.777344 44.125 99 C 35.851562 103.222656 30 111.597656 30 121.5 C 30 135.546875 41.453125 147 55.5 147 C 69.546875 147 81 135.546875 81 121.5 L 81 88.96875 C 85.023438 96.605469 92.796875 102 102 102 C 115.21875 102 126 91.21875 126 78 C 126 67.132812 118.578125 58.285156 108.644531 55.347656 C 118.660156 51.90625 126 42.660156 126 31.5 C 126 17.453125 114.546875 6 100.5 6 Z M 55.5 12 L 75 12 L 75 51 L 55.5 51 C 44.695312 51 36 42.304688 36 31.5 C 36 20.695312 44.695312 12 55.5 12 Z M 81 12 L 100.5 12 C 111.304688 12 120 20.695312 120 31.5 C 120 42.304688 111.304688 51 100.5 51 L 81 51 Z M 55.5 57 L 75 57 L 75 96 L 55.5 96 C 44.695312 96 36 87.304688 36 76.5 C 36 65.695312 44.695312 57 55.5 57 Z M 81 57 L 91.03125 57 C 86.726562 59.269531 83.269531 62.726562 81 67.03125 Z M 102 60 C 111.976562 60 120 68.023438 120 78 C 120 87.976562 111.976562 96 102 96 C 92.023438 96 84 87.976562 84 78 C 84 68.023438 92.023438 60 102 60 Z M 55.5 102 L 75 102 L 75 121.5 C 75 132.304688 66.304688 141 55.5 141 C 44.695312 141 36 132.304688 36 121.5 C 36 110.695312 44.695312 102 55.5 102 Z M 55.5 102 "/>
</g>
</svg>
