<?xml version="1.0" encoding="UTF-8"?>
<svg xmlns="http://www.w3.org/2000/svg" xmlns:xlink="http://www.w3.org/1999/xlink" viewBox="0 0 192 192" width="192px" height="192px">
<g id="surface38888578">
<path style=" stroke:none;fill-rule:nonzero;fill:rgb(13.725491%,12.156863%,12.54902%);fill-opacity:1;" d="M 85.617188 2.542969 C 42.191406 7.265625 7.265625 42.191406 2.542969 84.671875 C -3.121094 131.871094 26.144531 172.464844 67.679688 185.679688 L 67.679688 163.96875 C 67.679688 163.96875 63.902344 164.910156 59.183594 164.910156 C 45.96875 164.910156 40.304688 153.585938 39.359375 146.976562 C 38.414062 143.199219 36.527344 140.367188 33.695312 137.535156 C 30.863281 136.59375 29.921875 136.59375 29.921875 135.648438 C 29.921875 133.761719 32.753906 133.761719 33.695312 133.761719 C 39.359375 133.761719 44.078125 140.367188 45.96875 143.199219 C 50.6875 150.753906 56.351562 152.640625 59.183594 152.640625 C 62.960938 152.640625 65.792969 151.695312 67.679688 150.753906 C 68.625 144.144531 71.457031 137.535156 77.121094 133.761719 C 55.40625 129.039062 39.359375 116.769531 39.359375 96 C 39.359375 85.617188 44.078125 75.230469 50.6875 67.679688 C 49.742188 65.792969 48.800781 61.070312 48.800781 54.464844 C 48.800781 50.6875 48.800781 45.023438 51.632812 39.359375 C 51.632812 39.359375 64.847656 39.359375 78.0625 51.632812 C 82.785156 49.742188 89.390625 48.800781 96 48.800781 C 102.609375 48.800781 109.214844 49.742188 114.878906 51.632812 C 127.152344 39.359375 141.3125 39.359375 141.3125 39.359375 C 143.199219 45.023438 143.199219 50.6875 143.199219 54.464844 C 143.199219 62.015625 142.257812 65.792969 141.3125 67.679688 C 147.921875 75.230469 152.640625 84.671875 152.640625 96 C 152.640625 116.769531 136.59375 129.039062 114.878906 133.761719 C 120.542969 138.480469 124.320312 146.976562 124.320312 155.472656 L 124.320312 186.625 C 163.023438 174.351562 190.398438 138.480469 190.398438 96.945312 C 190.398438 40.304688 142.257812 -4.0625 85.617188 2.542969 Z M 85.617188 2.542969 "/>
</g>
</svg>
