<?xml version="1.0" encoding="UTF-8"?>
<svg xmlns="http://www.w3.org/2000/svg" xmlns:xlink="http://www.w3.org/1999/xlink" viewBox="0 0 100 100" width="100px" height="100px">
<g id="surface35717249">
<path style=" stroke:none;fill-rule:nonzero;fill:rgb(13.725491%,12.156863%,12.54902%);fill-opacity:1;" d="M 93.789062 1.019531 C 93.386719 0.574219 92.804688 0.320312 92.195312 0.320312 L 7.804688 0.320312 C 7.195312 0.320312 6.613281 0.574219 6.210938 1.019531 C 5.796875 1.46875 5.59375 2.066406 5.652344 2.675781 L 13.253906 87.832031 C 13.332031 88.726562 13.953125 89.46875 14.816406 89.722656 L 49.402344 99.59375 C 49.585938 99.65625 49.789062 99.679688 49.992188 99.679688 C 50.195312 99.679688 50.386719 99.65625 50.582031 99.59375 L 85.191406 89.722656 C 86.054688 89.46875 86.667969 88.726562 86.753906 87.832031 L 94.347656 2.675781 C 94.40625 2.066406 94.203125 1.46875 93.789062 1.019531 Z M 75.589844 30.382812 L 34.957031 30.382812 L 35.925781 41.375 L 74.613281 41.375 L 71.710938 73.871094 L 49.984375 80.433594 L 49.773438 80.367188 L 28.296875 73.859375 L 27.125 60.621094 L 37.648438 60.621094 L 38.101562 65.761719 L 50.109375 68.277344 L 61.898438 65.761719 L 63.152344 51.855469 L 26.339844 51.855469 L 23.480469 19.878906 L 76.527344 19.878906 Z M 75.589844 30.382812 "/>
</g>
</svg>
