<?xml version="1.0" encoding="UTF-8"?>
<svg xmlns="http://www.w3.org/2000/svg" xmlns:xlink="http://www.w3.org/1999/xlink" viewBox="0 0 100 100" width="100px" height="100px">
<g id="surface34807703">
<path style=" stroke:none;fill-rule:nonzero;fill:rgb(13.725491%,12.156863%,12.54902%);fill-opacity:1;" d="M 97.671875 -4.601562 L 2.335938 -4.601562 C -1.492188 -4.601562 -4.601562 -1.492188 -4.601562 2.335938 L -4.601562 97.664062 C -4.601562 101.492188 -1.492188 104.601562 2.335938 104.601562 L 97.664062 104.601562 C 101.492188 104.601562 104.601562 101.492188 104.601562 97.671875 L 104.601562 2.335938 C 104.601562 -1.492188 101.492188 -4.601562 97.671875 -4.601562 Z M 55.199219 79.078125 C 55.199219 89.46875 49.105469 94.199219 40.210938 94.199219 C 32.164062 94.199219 26.367188 88.808594 24 83.800781 L 32.175781 78.855469 C 33.75 81.648438 36.148438 83.800781 39.601562 83.800781 C 42.902344 83.800781 44.800781 82.511719 44.800781 77.492188 L 44.800781 44.800781 L 55.199219 44.800781 Z M 77.757812 94.199219 C 68.546875 94.199219 63.316406 89.558594 60.398438 83.800781 L 68.199219 78.601562 C 70.324219 82.074219 72.636719 85.394531 77.535156 85.394531 C 81.648438 85.394531 83.800781 83.34375 83.800781 80.5 C 83.800781 77.105469 81.566406 75.898438 77.046875 73.917969 L 74.566406 72.851562 C 67.40625 69.804688 62.644531 65.984375 62.644531 57.902344 C 62.644531 50.46875 68.320312 44.800781 77.179688 44.800781 C 83.484375 44.800781 88.015625 46.992188 91.285156 52.742188 L 83.566406 57.707031 C 81.859375 54.652344 80.03125 53.453125 77.179688 53.453125 C 74.273438 53.453125 72.433594 55.300781 72.433594 57.707031 C 72.433594 60.683594 74.273438 61.882812 78.527344 63.730469 L 81.007812 64.796875 C 89.445312 68.402344 94.199219 72.089844 94.199219 80.378906 C 94.199219 89.304688 87.183594 94.199219 77.757812 94.199219 Z M 77.757812 94.199219 "/>
</g>
</svg>
