<?xml version="1.0" encoding="UTF-8"?>
<svg xmlns="http://www.w3.org/2000/svg" xmlns:xlink="http://www.w3.org/1999/xlink" viewBox="0 0 100 100" width="100px" height="100px">
<g id="surface35713933">
<path style=" stroke:none;fill-rule:evenodd;fill:rgb(13.725491%,12.156863%,12.54902%);fill-opacity:1;" d="M 70.828125 4.1875 C 69.128906 4.128906 67.351562 4.425781 65.566406 5.003906 C 62 6.160156 58.261719 8.414062 54.425781 11.535156 C 52.921875 12.757812 51.402344 14.15625 49.878906 15.640625 C 48.390625 14.195312 46.90625 12.832031 45.4375 11.636719 C 41.601562 8.519531 37.875 6.265625 34.3125 5.109375 C 30.753906 3.957031 27.214844 3.921875 24.304688 5.597656 C 21.394531 7.277344 19.65625 10.363281 18.875 14.023438 C 18.09375 17.679688 18.179688 22.039062 18.964844 26.917969 C 19.238281 28.613281 19.625 30.390625 20.066406 32.203125 C 18.40625 32.707031 16.792969 33.234375 15.292969 33.820312 C 10.777344 35.585938 7.039062 37.695312 4.316406 40.207031 C 1.597656 42.71875 -0.160156 45.765625 -0.160156 49.113281 C -0.160156 52.460938 1.597656 55.503906 4.316406 58.015625 C 7.039062 60.527344 10.777344 62.644531 15.292969 64.410156 C 16.894531 65.035156 18.628906 65.597656 20.417969 66.128906 C 19.773438 68.53125 19.253906 70.867188 18.898438 73.078125 C 18.113281 77.960938 18.03125 82.320312 18.8125 85.988281 C 19.59375 89.65625 21.335938 92.753906 24.257812 94.441406 C 27.179688 96.128906 30.738281 96.089844 34.304688 94.933594 C 37.875 93.777344 41.609375 91.527344 45.445312 88.40625 C 46.933594 87.195312 48.441406 85.8125 49.949219 84.34375 C 51.464844 85.820312 52.976562 87.210938 54.476562 88.425781 C 58.308594 91.546875 62.042969 93.796875 65.601562 94.949219 C 69.160156 96.105469 72.703125 96.140625 75.609375 94.460938 C 78.519531 92.78125 80.253906 89.699219 81.035156 86.039062 C 81.816406 82.378906 81.730469 78.023438 80.945312 73.144531 C 80.589844 70.929688 80.066406 68.585938 79.421875 66.175781 C 81.269531 65.628906 83.058594 65.050781 84.707031 64.410156 C 89.222656 62.644531 92.960938 60.527344 95.683594 58.015625 C 98.402344 55.503906 100.160156 52.460938 100.160156 49.113281 C 100.160156 45.765625 98.402344 42.71875 95.683594 40.207031 C 92.960938 37.695312 89.222656 35.585938 84.707031 33.820312 C 83.1875 33.226562 81.546875 32.691406 79.859375 32.179688 C 80.304688 30.359375 80.703125 28.566406 80.976562 26.863281 C 81.761719 21.980469 81.84375 17.617188 81.0625 13.949219 C 80.277344 10.28125 78.535156 7.183594 75.609375 5.496094 C 74.148438 4.652344 72.527344 4.242188 70.828125 4.1875 Z M 70.628906 8.621094 C 71.695312 8.652344 72.605469 8.90625 73.382812 9.355469 C 74.941406 10.253906 76.089844 12.003906 76.703125 14.882812 C 77.320312 17.761719 77.296875 21.648438 76.574219 26.160156 C 76.324219 27.703125 75.964844 29.339844 75.554688 31.019531 C 71.097656 29.945312 66.210938 29.148438 61.003906 28.679688 C 58.386719 25.058594 55.703125 21.761719 52.992188 18.832031 C 54.425781 17.433594 55.847656 16.125 57.238281 14.996094 C 60.78125 12.113281 64.136719 10.152344 66.9375 9.246094 C 68.335938 8.789062 69.5625 8.59375 70.628906 8.621094 Z M 29.261719 8.636719 C 30.332031 8.605469 31.558594 8.800781 32.964844 9.257812 C 35.773438 10.167969 39.132812 12.128906 42.679688 15.011719 C 44.042969 16.121094 45.433594 17.402344 46.835938 18.769531 C 44.109375 21.71875 41.398438 25.046875 38.769531 28.703125 C 33.582031 29.179688 28.714844 29.980469 24.277344 31.058594 C 23.871094 29.390625 23.511719 27.761719 23.265625 26.222656 C 22.539062 21.710938 22.523438 17.820312 23.136719 14.933594 C 23.753906 12.046875 24.914062 10.285156 26.484375 9.375 C 27.269531 8.921875 28.1875 8.664062 29.261719 8.636719 Z M 49.949219 21.972656 C 51.726562 23.902344 53.5 26.019531 55.261719 28.292969 C 53.53125 28.222656 51.78125 28.179688 50 28.179688 C 48.183594 28.179688 46.398438 28.222656 44.636719 28.296875 C 46.398438 26.019531 48.171875 23.90625 49.949219 21.972656 Z M 50 32.582031 C 52.964844 32.582031 55.855469 32.703125 58.664062 32.910156 C 60.597656 35.6875 62.488281 38.632812 64.289062 41.753906 C 65.871094 44.492188 67.304688 47.230469 68.605469 49.933594 C 67.289062 52.671875 65.832031 55.445312 64.230469 58.222656 C 62.816406 60.667969 61.34375 62.992188 59.84375 65.230469 C 56.667969 65.496094 53.378906 65.644531 50 65.644531 C 46.539062 65.644531 43.175781 65.488281 39.929688 65.207031 C 38.457031 63 37.007812 60.714844 35.617188 58.308594 C 34.015625 55.535156 32.566406 52.765625 31.253906 50.035156 C 32.574219 47.285156 34.027344 44.503906 35.636719 41.714844 C 37.429688 38.613281 39.3125 35.683594 41.238281 32.917969 C 44.078125 32.707031 47 32.582031 50 32.582031 Z M 64.277344 33.453125 C 67.871094 33.902344 71.246094 34.523438 74.382812 35.273438 C 73.453125 38.328125 72.304688 41.515625 70.914062 44.808594 C 70.011719 43.070312 69.078125 41.324219 68.066406 39.574219 C 66.839844 37.453125 65.566406 35.429688 64.277344 33.453125 Z M 35.488281 33.488281 C 34.226562 35.425781 32.984375 37.410156 31.785156 39.488281 C 30.761719 41.261719 29.808594 43.03125 28.894531 44.792969 C 27.515625 41.519531 26.375 38.347656 25.449219 35.3125 C 28.566406 34.5625 31.921875 33.941406 35.488281 33.488281 Z M 78.699219 36.429688 C 80.242188 36.898438 81.734375 37.386719 83.105469 37.921875 C 87.269531 39.546875 90.5625 41.472656 92.699219 43.441406 C 94.832031 45.414062 95.757812 47.292969 95.757812 49.113281 C 95.757812 50.9375 94.832031 52.816406 92.699219 54.785156 C 90.5625 56.753906 87.269531 58.683594 83.105469 60.308594 C 81.582031 60.902344 79.910156 61.441406 78.175781 61.953125 C 76.933594 58.117188 75.351562 54.117188 73.46875 50.035156 C 75.632812 45.347656 77.382812 40.773438 78.699219 36.429688 Z M 21.230469 36.453125 C 22.53125 40.753906 24.257812 45.277344 26.390625 49.917969 C 24.496094 54.027344 22.90625 58.050781 21.660156 61.90625 C 19.984375 61.40625 18.367188 60.882812 16.894531 60.308594 C 12.730469 58.683594 9.4375 56.753906 7.300781 54.785156 C 5.167969 52.816406 4.242188 50.9375 4.242188 49.113281 C 4.242188 47.292969 5.167969 45.414062 7.300781 43.441406 C 9.4375 41.472656 12.730469 39.546875 16.894531 37.921875 C 18.242188 37.394531 19.710938 36.914062 21.230469 36.453125 Z M 50 39.101562 C 44.007812 39.101562 39.101562 44.007812 39.101562 50 C 39.101562 55.992188 44.007812 60.898438 50 60.898438 C 55.992188 60.898438 60.898438 55.992188 60.898438 50 C 60.898438 44.007812 55.992188 39.101562 50 39.101562 Z M 28.945312 55.15625 C 29.863281 56.925781 30.816406 58.707031 31.84375 60.488281 C 32.648438 61.882812 33.472656 63.238281 34.304688 64.570312 C 31.378906 64.164062 28.59375 63.648438 25.980469 63.042969 C 26.8125 60.496094 27.808594 57.855469 28.945312 55.15625 Z M 70.96875 55.15625 C 72.113281 57.859375 73.105469 60.507812 73.941406 63.058594 C 71.320312 63.667969 68.527344 64.179688 65.59375 64.582031 C 66.4375 63.234375 67.273438 61.859375 68.085938 60.449219 C 69.109375 58.679688 70.058594 56.914062 70.96875 55.15625 Z M 24.726562 67.273438 C 28.671875 68.207031 32.949219 68.925781 37.480469 69.394531 C 40.507812 73.773438 43.664062 77.707031 46.835938 81.144531 C 45.417969 82.53125 44.011719 83.828125 42.632812 84.949219 C 39.089844 87.832031 35.730469 89.789062 32.929688 90.695312 C 30.128906 91.605469 28.039062 91.484375 26.484375 90.585938 C 24.925781 89.6875 23.78125 87.9375 23.167969 85.058594 C 22.554688 82.179688 22.570312 78.292969 23.296875 73.785156 C 23.625 71.738281 24.113281 69.546875 24.726562 67.273438 Z M 75.203125 67.289062 C 75.816406 69.578125 76.308594 71.777344 76.640625 73.835938 C 77.367188 78.351562 77.382812 82.238281 76.769531 85.128906 C 76.152344 88.015625 75 89.78125 73.429688 90.6875 C 71.859375 91.59375 69.75 91.714844 66.941406 90.800781 C 64.132812 89.890625 60.773438 87.929688 57.226562 85.046875 C 55.839844 83.917969 54.421875 82.609375 52.992188 81.214844 C 56.1875 77.761719 59.363281 73.808594 62.410156 69.402344 C 66.957031 68.9375 71.246094 68.222656 75.203125 67.289062 Z M 43.171875 69.839844 C 45.410156 69.964844 47.675781 70.046875 50 70.046875 C 52.246094 70.046875 54.441406 69.96875 56.609375 69.855469 C 54.394531 72.84375 52.132812 75.5625 49.886719 78.007812 C 47.636719 75.554688 45.382812 72.832031 43.171875 69.839844 Z M 43.171875 69.839844 "/>
</g>
</svg>
