<?xml version="1.0" encoding="UTF-8"?>
<svg xmlns="http://www.w3.org/2000/svg" xmlns:xlink="http://www.w3.org/1999/xlink" viewBox="0 0 100 100" width="100px" height="100px">
<g id="surface35709081">
<path style=" stroke:none;fill-rule:nonzero;fill:rgb(13.725491%,12.156863%,12.54902%);fill-opacity:1;" d="M 102 -4.601562 L -2 -4.601562 C -3.4375 -4.601562 -4.601562 -3.433594 -4.601562 -2 L -4.601562 102 C -4.601562 103.433594 -3.4375 104.601562 -2 104.601562 L 102 104.601562 C 103.4375 104.601562 104.601562 103.433594 104.601562 102 L 104.601562 -2 C 104.601562 -3.433594 103.4375 -4.601562 102 -4.601562 Z M 60.398438 53.757812 L 47.398438 53.757812 L 47.398438 94.199219 L 37 94.199219 L 37 53.757812 L 24 53.757812 L 24 44.800781 L 60.398438 44.800781 Z M 63.316406 91.890625 L 63.316406 81.082031 C 63.316406 81.082031 69.21875 85.53125 76.304688 85.53125 C 83.390625 85.53125 83.117188 80.898438 83.117188 80.265625 C 83.117188 73.539062 63.042969 73.539062 63.042969 58.644531 C 63.042969 38.386719 92.292969 46.378906 92.292969 46.378906 L 91.925781 56.011719 C 91.925781 56.011719 87.019531 52.742188 81.480469 52.742188 C 75.941406 52.742188 73.941406 55.375 73.941406 58.191406 C 73.941406 65.457031 94.199219 64.730469 94.199219 79.355469 C 94.199219 101.882812 63.316406 91.890625 63.316406 91.890625 Z M 63.316406 91.890625 "/>
</g>
</svg>
